<svg xmlns="http://www.w3.org/2000/svg" width="28" height="28" viewBox="0 0 28 28" fill="none">
  <path d="M24.5 11.6654H3.5M18.6667 2.33203V6.9987M9.33333 2.33203V6.9987M9.1 25.6654H18.9C20.8602 25.6654 21.8403 25.6654 22.589 25.2839C23.2475 24.9483 23.783 24.4129 24.1185 23.7543C24.5 23.0056 24.5 22.0255 24.5 20.0654V10.2654C24.5 8.30518 24.5 7.32509 24.1185 6.5764C23.783 5.91783 23.2475 5.3824 22.589 5.04684C21.8403 4.66536 20.8602 4.66536 18.9 4.66536H9.1C7.13982 4.66536 6.15972 4.66536 5.41103 5.04684C4.75247 5.3824 4.21703 5.91783 3.88148 6.5764C3.5 7.32509 3.5 8.30518 3.5 10.2654V20.0654C3.5 22.0255 3.5 23.0056 3.88148 23.7543C4.21703 24.4129 4.75247 24.9483 5.41103 25.2839C6.15972 25.6654 7.13982 25.6654 9.1 25.6654Z" stroke="current" stroke-width="2" stroke-linecap="round" stroke-linejoin="round"/>
</svg>