<svg xmlns="http://www.w3.org/2000/svg" width="28" height="28" viewBox="0 0 28 28" fill="none" stroke="#BFBFBF">
  <path d="M15.146 3.22454C14.7361 2.90575 14.5312 2.74635 14.3049 2.68508C14.1052 2.63102 13.8948 2.63102 13.6951 2.68508C13.4688 2.74635 13.2639 2.90575 12.854 3.22454L4.94129 9.37886C4.41236 9.79025 4.14789 9.99594 3.95736 10.2535C3.78859 10.4817 3.66287 10.7388 3.58637 11.0121C3.5 11.3206 3.5 11.6557 3.5 12.3258V20.7665C3.5 22.0733 3.5 22.7267 3.75432 23.2258C3.97802 23.6649 4.33498 24.0218 4.77402 24.2455C5.27315 24.4999 5.92654 24.4999 7.23333 24.4999H9.56667C9.89336 24.4999 10.0567 24.4999 10.1815 24.4363C10.2913 24.3804 10.3805 24.2911 10.4364 24.1814C10.5 24.0566 10.5 23.8932 10.5 23.5665V15.8665C10.5 15.2131 10.5 14.8864 10.6272 14.6369C10.739 14.4173 10.9175 14.2389 11.137 14.127C11.3866 13.9999 11.7133 13.9999 12.3667 13.9999H15.6333C16.2867 13.9999 16.6134 13.9999 16.863 14.127C17.0825 14.2389 17.261 14.4173 17.3728 14.6369C17.5 14.8864 17.5 15.2131 17.5 15.8665V23.5665C17.5 23.8932 17.5 24.0566 17.5636 24.1814C17.6195 24.2911 17.7087 24.3804 17.8185 24.4363C17.9433 24.4999 18.1066 24.4999 18.4333 24.4999H20.7667C22.0735 24.4999 22.7269 24.4999 23.226 24.2455C23.665 24.0218 24.022 23.6649 24.2457 23.2258C24.5 22.7267 24.5 22.0733 24.5 20.7665V12.3258C24.5 11.6557 24.5 11.3206 24.4136 11.0121C24.3371 10.7388 24.2114 10.4817 24.0426 10.2535C23.8521 9.99594 23.5876 9.79025 23.0587 9.37886L15.146 3.22454Z" stroke="current" stroke-width="2" stroke-linecap="round" stroke-linejoin="round"/>
</svg>