<svg width="36" height="36" viewBox="0 0 36 36" fill="none" xmlns="http://www.w3.org/2000/svg">
<path d="M15.2066 35.5022H3.93058C3.77028 35.5022 3.64062 35.3726 3.64062 35.2123V23.5996H15.2073V35.5022H15.2066Z" fill="#FFD880"/>
<path d="M17.3388 37.1465C25.0293 37.1465 31.2636 30.9135 31.2636 23.2246C31.2636 15.5358 25.0293 9.30273 17.3388 9.30273C9.64839 9.30273 3.41406 15.5358 3.41406 23.2246C3.41406 30.9135 9.64839 37.1465 17.3388 37.1465Z" fill="#FFD880"/>
<path d="M35.2243 9.21425H0.775703C0.623959 9.21425 0.5 9.09103 0.5 8.9386V5.53541C0.5 5.3837 0.623247 5.25977 0.775703 5.25977H35.2243C35.376 5.25977 35.5 5.38299 35.5 5.53541V8.9386C35.5 9.09103 35.3768 9.21425 35.2243 9.21425Z" fill="#FF4C5C"/>
<path d="M31.132 5.39908H22.7882C22.618 5.39908 22.4805 5.26091 22.4805 5.09139V-1.29191C22.4805 -1.46214 22.6187 -1.59961 22.7882 -1.59961H31.132C31.3022 -1.59961 31.4397 -1.46143 31.4397 -1.29191V5.09067C31.4405 5.2609 31.3022 5.39908 31.132 5.39908Z" fill="#1A00E7"/>
<path d="M17.9147 24.6195C19.134 24.6195 20.1225 22.5933 20.1225 20.0939C20.1225 17.5945 19.134 15.5684 17.9147 15.5684C16.6955 15.5684 15.707 17.5945 15.707 20.0939C15.707 22.5933 16.6955 24.6195 17.9147 24.6195Z" fill="white"/>
<path d="M25.1179 24.6195C26.3372 24.6195 27.3256 22.5933 27.3256 20.0939C27.3256 17.5945 26.3372 15.5684 25.1179 15.5684C23.8986 15.5684 22.9102 17.5945 22.9102 20.0939C22.9102 22.5933 23.8986 24.6195 25.1179 24.6195Z" fill="white"/>
<path d="M18.5418 23.4551C19.4472 23.4551 20.1812 21.9511 20.1812 20.0957C20.1812 18.2404 19.4472 16.7363 18.5418 16.7363C17.6363 16.7363 16.9023 18.2404 16.9023 20.0957C16.9023 21.9511 17.6363 23.4551 18.5418 23.4551Z" fill="black"/>
<path d="M25.7058 23.4532C26.6112 23.4532 27.3452 21.9491 27.3452 20.0938C27.3452 18.2384 26.6112 16.7344 25.7058 16.7344C24.8004 16.7344 24.0664 18.2384 24.0664 20.0938C24.0664 21.9491 24.8004 23.4532 25.7058 23.4532Z" fill="black"/>
<path d="M23.7529 25.6126C23.7225 25.619 23.6757 25.605 23.6137 25.5705C23.6167 25.4799 23.6097 25.3922 23.5904 25.3063C23.5518 25.1262 23.4793 24.9836 23.3734 24.8784C23.2495 24.7515 23.1039 24.7065 22.9361 24.7428C22.8291 24.7661 22.7104 24.8731 22.5789 25.0643C22.3824 25.353 22.2468 25.5342 22.1725 25.6073C21.9737 25.8137 21.7422 25.9452 21.4762 26.0025C21.3207 26.0358 21.1488 26.041 20.9617 26.0171C20.7535 25.9884 20.5939 25.9306 20.4823 25.8423C20.2384 25.6588 20.0163 25.4302 19.8163 25.1566C19.6052 24.8603 19.4702 24.5744 19.4111 24.2997C19.3971 24.2383 19.5339 24.0659 19.8192 23.7824C20.1051 23.4983 20.2852 23.3486 20.3577 23.3328C20.3852 23.327 20.4057 23.3398 20.4197 23.372C20.5056 23.5772 20.5916 23.7841 20.6781 23.9928C20.8214 24.243 20.9909 24.347 21.1868 24.3049C21.3213 24.2763 21.4604 24.1646 21.6036 23.9706C21.8527 23.6257 21.9843 23.4457 22.0001 23.4293C22.1866 23.2259 22.4017 23.0978 22.6461 23.0452C23.1045 22.9464 23.5442 23.0949 23.9657 23.4895C24.3393 23.8437 24.5779 24.2576 24.6796 24.7311C24.6907 24.7802 24.5521 24.9363 24.2651 25.1993C23.9786 25.4629 23.8073 25.6009 23.7529 25.6126Z" fill="#FF7717"/>
</svg>
