<svg xmlns="http://www.w3.org/2000/svg" width="28" height="28" viewBox="0 0 28 28" fill="none" stroke="#BFBFBF">
  <path d="M16.3346 2.64648V7.46545C16.3346 8.11884 16.3346 8.44554 16.4618 8.6951C16.5736 8.91463 16.7521 9.0931 16.9716 9.20495C17.2212 9.33211 17.5479 9.33211 18.2013 9.33211H23.0203M18.668 15.1654H9.33464M18.668 19.832H9.33464M11.668 10.4987H9.33464M16.3346 2.33203H10.268C8.30779 2.33203 7.32769 2.33203 6.579 2.71351C5.92043 3.04907 5.385 3.5845 5.04945 4.24306C4.66797 4.99176 4.66797 5.97185 4.66797 7.93203V20.0654C4.66797 22.0255 4.66797 23.0056 5.04945 23.7543C5.385 24.4129 5.92043 24.9483 6.579 25.2839C7.32769 25.6654 8.30779 25.6654 10.268 25.6654H17.7346C19.6948 25.6654 20.6749 25.6654 21.4236 25.2839C22.0822 24.9483 22.6176 24.4129 22.9532 23.7543C23.3346 23.0056 23.3346 22.0255 23.3346 20.0654V9.33203L16.3346 2.33203Z" stroke="current" stroke-width="2" stroke-linecap="round" stroke-linejoin="round"/>
</svg>