<svg width="46" height="46" viewBox="0 0 46 46" fill="none" xmlns="http://www.w3.org/2000/svg">
<g id="Layer_1" clip-path="url(#clip0_3413_37187)">
<path id="Vector" d="M23 45.5C35.4264 45.5 45.5 35.4264 45.5 23C45.5 10.5736 35.4264 0.5 23 0.5C10.5736 0.5 0.5 10.5736 0.5 23C0.5 35.4264 10.5736 45.5 23 45.5Z" fill="url(#paint0_linear_3413_37187)"/>
<path id="Vector_2" d="M22.7843 28.7565C19.8233 28.7565 17.0243 27.7845 14.9048 26.016C12.6863 24.1665 11.4668 21.6825 11.4668 19.014C11.4668 16.3455 12.6863 13.8615 14.9048 12.012C17.0243 10.2435 19.8233 9.27148 22.7843 9.27148C25.7453 9.27148 28.5443 10.2435 30.6638 12.012C32.8823 13.8615 34.1018 16.3455 34.1018 19.014C34.1018 20.517 33.7148 21.9615 32.9543 23.3025C32.4458 24.198 31.3118 24.5085 30.4163 24C29.5208 23.4915 29.2103 22.3575 29.7188 21.462C30.1598 20.688 30.3803 19.8645 30.3803 19.014C30.3803 17.4705 29.6333 15.999 28.2788 14.874C26.8253 13.6635 24.8768 12.9975 22.7843 12.9975C20.6918 12.9975 18.7433 13.6635 17.2898 14.874C15.9353 16.0035 15.1883 17.475 15.1883 19.014C15.1883 20.553 15.9353 22.029 17.2898 23.154C18.7433 24.3645 20.6918 25.0305 22.7843 25.0305C22.8473 25.0305 22.9103 25.0305 22.9733 25.0305H23.0093C24.0218 25.0305 24.8498 25.8405 24.8678 26.8575C24.8858 27.8835 24.0713 28.734 23.0408 28.752C22.9553 28.752 22.8698 28.752 22.7798 28.752L22.7843 28.7565Z" fill="white"/>
<path id="Vector_3" d="M22.7843 36.9498C19.8233 36.9498 17.0243 35.9778 14.9048 34.2093C12.6863 32.3598 11.4668 29.8758 11.4668 27.2073C11.4668 25.7043 11.8538 24.2598 12.6143 22.9188C13.1228 22.0233 14.2568 21.7128 15.1523 22.2213C16.0478 22.7298 16.3583 23.8638 15.8498 24.7593C15.4088 25.5333 15.1883 26.3568 15.1883 27.2073C15.1883 28.7508 15.9353 30.2223 17.2898 31.3473C18.7433 32.5578 20.6918 33.2238 22.7843 33.2238C24.8768 33.2238 26.8253 32.5578 28.2788 31.3473C29.6333 30.2178 30.3803 28.7463 30.3803 27.2073C30.3803 25.6683 29.6333 24.1923 28.2788 23.0673C26.8253 21.8568 24.8768 21.1908 22.7843 21.1908C22.7213 21.1908 22.6583 21.1908 22.5953 21.1908C21.5693 21.2088 20.7188 20.3943 20.6963 19.3638C20.6783 18.3378 21.4928 17.4873 22.5233 17.4648C22.6088 17.4648 22.6988 17.4648 22.7843 17.4648C25.7453 17.4648 28.5443 18.4368 30.6638 20.2053C32.8823 22.0548 34.1018 24.5388 34.1018 27.2073C34.1018 29.8758 32.8823 32.3598 30.6638 34.2093C28.5443 35.9778 25.7453 36.9498 22.7843 36.9498Z" fill="white"/>
</g>
<defs>
<linearGradient id="paint0_linear_3413_37187" x1="0.464" y1="0.527" x2="45.518" y2="45.4595" gradientUnits="userSpaceOnUse">
<stop stop-color="#FFBF53"/>
<stop offset="0.5" stop-color="#FFD880"/>
<stop offset="1" stop-color="#FFCC33"/>
</linearGradient>
<clipPath id="clip0_3413_37187">
<rect width="45" height="45" fill="white" transform="translate(0.5 0.5)"/>
</clipPath>
</defs>
</svg>
