<svg width="18" height="18" viewBox="0 0 18 18" fill="none" xmlns="http://www.w3.org/2000/svg">
<g id="&#236;&#149;&#132;&#236;&#157;&#180;&#236;&#189;&#152;/&#237;&#131;&#136;&#237;&#135;&#180;">
<path id="Icon" d="M14.25 15.75L16.5 13.5M16.5 13.5L14.25 11.25M16.5 13.5H12M9 11.625H5.625C4.57833 11.625 4.05499 11.625 3.62914 11.7542C2.67034 12.045 1.92003 12.7953 1.62918 13.7541C1.5 14.18 1.5 14.7033 1.5 15.75M10.875 5.625C10.875 7.48896 9.36396 9 7.5 9C5.63604 9 4.125 7.48896 4.125 5.625C4.125 3.76104 5.63604 2.25 7.5 2.25C9.36396 2.25 10.875 3.76104 10.875 5.625Z" stroke="#636363" stroke-width="1.5" stroke-linecap="round" stroke-linejoin="round"/>
</g>
</svg>
