<svg width="18" height="18" viewBox="0 0 18 18" fill="none" xmlns="http://www.w3.org/2000/svg">
<g id="&#236;&#149;&#132;&#236;&#157;&#180;&#236;&#189;&#152;/ &#236;&#180;&#136;&#235;&#140;&#128;&#237;&#149;&#152;&#234;&#184;&#176;">
<path id="Icon" d="M10.308 1.97522L15.954 5.64512C16.1535 5.7748 16.2532 5.83964 16.3255 5.92613C16.3895 6.00269 16.4375 6.09124 16.4669 6.18661C16.5 6.29434 16.5 6.41331 16.5 6.65126V12.15C16.5 13.4102 16.5 14.0402 16.2548 14.5215C16.039 14.9449 15.6948 15.2891 15.2715 15.5048C14.7902 15.75 14.1601 15.75 12.9 15.75H5.1C3.83988 15.75 3.20982 15.75 2.72852 15.5048C2.30516 15.2891 1.96095 14.9449 1.74524 14.5215C1.5 14.0402 1.5 13.4102 1.5 12.15V6.65126C1.5 6.41331 1.5 6.29434 1.53313 6.18661C1.56245 6.09124 1.61051 6.00269 1.67449 5.92613C1.74676 5.83964 1.84651 5.7748 2.04601 5.64512L7.69203 1.97522M10.308 1.97522C9.83454 1.66748 9.59782 1.51362 9.34277 1.45375C9.11732 1.40083 8.88268 1.40083 8.65723 1.45375C8.40218 1.51362 8.16546 1.66748 7.69203 1.97522M10.308 1.97522L14.9521 4.9939C15.468 5.32923 15.7259 5.49689 15.8153 5.70951C15.8933 5.89533 15.8933 6.10474 15.8153 6.29055C15.7259 6.50318 15.468 6.67084 14.9521 7.00617L10.308 10.0249C9.83454 10.3326 9.59782 10.4864 9.34277 10.5463C9.11732 10.5992 8.88268 10.5992 8.65723 10.5463C8.40218 10.4864 8.16546 10.3326 7.69203 10.0249L3.0479 7.00617C2.53201 6.67084 2.27407 6.50318 2.18473 6.29055C2.10666 6.10474 2.10666 5.89533 2.18473 5.70951C2.27407 5.49689 2.53201 5.32923 3.0479 4.9939L7.69203 1.97522M16.125 14.25L11.1429 9.75003M6.85712 9.75003L1.875 14.25" stroke="black" stroke-width="1.5" stroke-linecap="round" stroke-linejoin="round"/>
</g>
</svg>
